<svg width="24" height="24" viewBox="0 0 24 24" fill="none" xmlns="http://www.w3.org/2000/svg">
<rect x="-0.5" y="0.5" width="5" height="5" rx="1.5" transform="matrix(1 0 0 -1 10 7)" fill="#555555" stroke="#555555"/>
<rect x="-0.5" y="0.5" width="5" height="5" rx="1.5" transform="matrix(1 0 0 -1 18 7)" fill="#555555" stroke="#555555"/>
<rect x="-0.5" y="0.5" width="5" height="5" rx="1.5" transform="matrix(1 0 0 -1 2 7)" fill="#555555" stroke="#555555"/>
<rect x="-0.5" y="0.5" width="5" height="5" rx="1.5" transform="matrix(1 0 0 -1 2 15)" fill="#555555" stroke="#555555"/>
<rect x="-0.5" y="0.5" width="5" height="5" rx="1.5" transform="matrix(1 0 0 -1 10 23)" fill="#555555" stroke="#555555"/>
<rect x="-0.5" y="0.5" width="5" height="5" rx="1.5" transform="matrix(1 0 0 -1 18 23)" fill="#555555" stroke="#555555"/>
<rect x="-0.5" y="0.5" width="5" height="5" rx="1.5" transform="matrix(1 0 0 -1 2 23)" fill="#555555" stroke="#555555"/>
<rect x="-0.5" y="0.5" width="5" height="5" rx="1.5" transform="matrix(1 0 0 -1 18 15)" fill="#555555" stroke="#555555"/>
</svg>
