<svg width="24" height="24" viewBox="0 0 24 24" fill="none" xmlns="http://www.w3.org/2000/svg">
<path d="M6.8 22H17.2H17.2C18.8802 22 19.7202 22 20.362 21.6579C20.9265 21.357 21.3854 20.8768 21.673 20.2861C22 19.6147 22 18.7357 22 16.9777V9.3064V8H2V9.3064V16.9777C2 18.7357 2 19.6147 2.32698 20.2861C2.6146 20.8768 3.07354 21.357 3.63803 21.6579C4.27976 22 5.11984 22 6.79999 22H6.8Z" fill="white" stroke="white" stroke-width="2" stroke-linecap="round" stroke-linejoin="round"/>
<path d="M10.1801 13.2658L2.64125 8.65818C2.28234 8.43882 2.10289 8.32914 2.04074 8.19005C1.98642 8.0685 1.98642 7.9315 2.04074 7.80995C2.10289 7.67086 2.28234 7.56118 2.64125 7.34182L10.1801 2.73418C10.8388 2.33156 11.1682 2.13025 11.5231 2.05193C11.8368 1.98269 12.1632 1.98269 12.4769 2.05193C12.8318 2.13025 13.1612 2.33156 13.8199 2.73418L21.3587 7.34182C21.7177 7.56118 21.8971 7.67086 21.9593 7.80995C22.0136 7.9315 22.0136 8.0685 21.9593 8.19005C21.8971 8.32914 21.7177 8.43882 21.3587 8.65818L13.8199 13.2658C13.1612 13.6684 12.8318 13.8697 12.4769 13.9481C12.1632 14.0173 11.8368 14.0173 11.5231 13.9481C11.1682 13.8697 10.8388 13.6684 10.1801 13.2658Z" fill="#1A4D80" stroke="#1A4D80" stroke-width="2" stroke-linecap="round" stroke-linejoin="round"/>
</svg>
