<svg width="24" height="24" viewBox="0 0 24 24" fill="none" xmlns="http://www.w3.org/2000/svg">
<path d="M4 4L12 12" stroke="#555555" stroke-width="2" stroke-linecap="round"/>
<path d="M20 4L12 12" stroke="#555555" stroke-width="2" stroke-linecap="round"/>
<path d="M20 12H21C21 11.4477 20.5523 11 20 11V12ZM12 12V13H20V12V11H12V12ZM20 12H19V18H20H21V12H20Z" fill="#555555"/>
<path d="M4 18H5V6H4H3V18H4Z" fill="#555555"/>
<rect x="-0.5" y="0.5" width="5" height="5" rx="1.5" transform="matrix(1 0 0 -1 18 23)" fill="#44AA44" stroke="#44AA44"/>
<rect x="-0.5" y="0.5" width="5" height="5" rx="1.5" transform="matrix(1 0 0 -1 18 7)" fill="#44AA44" stroke="#44AA44"/>
<rect x="-0.5" y="0.5" width="5" height="5" rx="1.5" transform="matrix(1 0 0 -1 2 7)" fill="#44AA44" stroke="#44AA44"/>
<rect x="-0.5" y="0.5" width="5" height="5" rx="1.5" transform="matrix(1 0 0 -1 2 23)" fill="#44AA44" stroke="#44AA44"/>
</svg>
